# xmcd
#
# Track frame offsets: 
#        150
#        15605
#        33828
#        55280
#        69605
#        84455
#        105153
#        118805
#        135678
#        145355
#
# Disc length: 2148 seconds
#
# Revision: 5
# Processed by: cddbd v1.5.2PL0 Copyright (c) Steve Scherf et al.
# Submitted via: ExactAudioCopy v0.99pb4
#
DISCID=8408620a
DTITLE=Otis Spann - Cryin' Time
DYEAR=1900
DGENRE=Blues
TTITLE0=Home to Mississippi
TTITLE1=Blues is a botheration
TTITLE2=You said you'd be on time
TTITLE3=Cryin' time
TTITLE4=Blind man
TTITLE5=Some day
TTITLE6=Twisted snake
TTITLE7=Green flowers
TTITLE8=The new boogaloo
TTITLE9=Mule kicking in my stall
EXTD=
EXTT0=
EXTT1=
EXTT2=
EXTT3=
EXTT4=
EXTT5=
EXTT6=
EXTT7=
EXTT8=
EXTT9=
PLAYORDER=
